<svg width="14" height="14" viewBox="0 0 14 14" fill="none" xmlns="http://www.w3.org/2000/svg">
<path fill-rule="evenodd" clip-rule="evenodd" d="M13.3333 2.42425C13.3333 3.33699 11.9462 4.13192 9.89663 4.54549C11.9462 4.95902 13.3333 5.75395 13.3333 6.66669C13.3333 7.57942 11.9462 8.37435 9.89663 8.78789C11.9462 9.20145 13.3333 9.99639 13.3333 10.9091C13.3333 12.248 10.3485 13.3334 6.66663 13.3334C2.98473 13.3334 -4.06504e-05 12.248 -4.06504e-05 10.9091C-4.06504e-05 9.99639 1.38711 9.20145 3.43663 8.78789C1.38711 8.37435 -4.06504e-05 7.57942 -4.06504e-05 6.66669C-4.06504e-05 5.75395 1.38711 4.95902 3.43663 4.54549C1.38711 4.13192 -4.06504e-05 3.33699 -4.06504e-05 2.42425C-4.06504e-05 1.08539 2.98473 2.03848e-05 6.66663 2.03848e-05C10.3485 2.03848e-05 13.3333 1.08539 13.3333 2.42425Z" fill="#1C0D12"/>
</svg>
