<svg width="17" height="17" viewBox="0 0 17 17" fill="none" xmlns="http://www.w3.org/2000/svg">
<path fill-rule="evenodd" clip-rule="evenodd" d="M16.0845 15.2001L12.1727 11.2891C14.528 8.46147 14.2426 4.28138 11.5249 1.80006C8.80713 -0.681258 4.61839 -0.586062 2.01616 2.01616C-0.586062 4.61839 -0.681258 8.80713 1.80006 11.5249C4.28138 14.2426 8.46147 14.528 11.2891 12.1727L15.2001 16.0845C15.4443 16.3287 15.8402 16.3287 16.0845 16.0845C16.3287 15.8402 16.3287 15.4443 16.0845 15.2001ZM1.26727 6.89227C1.26727 3.78567 3.78567 1.26727 6.89227 1.26727C9.99887 1.26727 12.5173 3.78567 12.5173 6.89227C12.5173 9.99887 9.99887 12.5173 6.89227 12.5173C3.7871 12.5138 1.27072 9.99745 1.26727 6.89227Z" fill="#1C0D12"/>
</svg>
