<svg width="21" height="18" viewBox="0 0 21 18" fill="none" xmlns="http://www.w3.org/2000/svg">
<path fill-rule="evenodd" clip-rule="evenodd" d="M20.1921 2.71361C20.076 2.43334 19.8026 2.25055 19.4993 2.25049H16.6465C15.8351 0.87021 14.3596 0.0162795 12.7586 0.000488281C11.574 -0.0150499 10.4332 0.448029 9.59458 1.28486C8.73146 2.13187 8.24644 3.29119 8.24927 4.50049V5.07143C4.47489 4.0758 1.38771 1.00549 1.35489 0.972676C1.14945 0.765419 0.84245 0.696144 0.567916 0.795096C0.293382 0.894049 0.101172 1.14326 0.0752051 1.43393C-0.328857 5.91424 0.972392 8.91236 2.1377 10.6383C2.7059 11.4915 3.39713 12.256 4.18896 12.9071C2.76114 14.5505 0.513018 15.4139 0.488643 15.4233C0.274243 15.5036 0.108263 15.6774 0.0379498 15.8953C-0.0323634 16.1132 0.000691414 16.3513 0.127705 16.5417C0.198018 16.6467 0.479268 17.0152 1.16646 17.3592C2.01583 17.7849 3.13802 18.0005 4.49927 18.0005C11.1246 18.0005 16.6605 12.8986 17.2258 6.33424L20.0299 3.53111C20.2443 3.3165 20.3083 2.99384 20.1921 2.71361ZM15.9733 5.4708C15.8447 5.5997 15.7674 5.77098 15.7558 5.95268C15.3743 11.8674 10.4318 16.5005 4.49927 16.5005C3.50927 16.5005 2.81177 16.3692 2.32239 16.2117C3.40145 15.6258 4.90614 14.618 5.87364 13.1667C5.98842 12.9943 6.02673 12.782 5.9795 12.5803C5.93226 12.3785 5.80369 12.2053 5.62427 12.1017C5.5802 12.0764 1.50771 9.63236 1.49927 3.10174C2.99927 4.32049 5.74146 6.21143 8.87458 6.7383C9.09192 6.77494 9.31437 6.71413 9.48284 6.57202C9.65132 6.42991 9.74875 6.22089 9.74927 6.00049V4.50049C9.74757 3.69225 10.0721 2.91751 10.6493 2.35174C11.2026 1.79735 11.9567 1.49032 12.7399 1.50049C13.9268 1.51549 15.0358 2.23924 15.4999 3.30143C15.6194 3.57431 15.8892 3.75057 16.1871 3.75049H17.6871L15.9733 5.4708Z" fill="#994D5E"/>
</svg>
